<svg width="101" height="20" viewBox="0 0 101 20" fill="none" xmlns="http://www.w3.org/2000/svg">
<g clip-path="url(#clip0_1063_107191)">
<path d="M41.2832 12.442C42.5014 13.1457 43.8726 13.5441 45.2791 13.603C46.1355 13.603 46.6563 13.3722 46.6563 12.824C46.6563 12.045 45.5233 12.1223 43.9946 11.7403C42.0817 11.2672 40.9488 10.4709 40.9488 8.824C40.9488 6.70167 42.8617 5.49567 45.3729 5.49567C46.7058 5.48323 48.0262 5.75389 49.2461 6.28967V8.91633C48.0845 8.27337 46.7892 7.90758 45.462 7.84766C44.6357 7.84766 44.1462 8.09117 44.1462 8.54934C44.1462 9.25216 45.2329 9.25216 46.7326 9.588C48.6617 10.0612 49.841 10.794 49.841 12.5343C49.841 14.7271 47.8806 15.9388 45.2942 15.9388C43.9194 15.9442 42.5593 15.6578 41.304 15.0987L41.289 12.4443L41.2832 12.442ZM58.4219 15.4195C57.7197 15.7902 56.9354 15.9791 56.1409 15.9688C55.6562 15.9908 55.1721 15.9126 54.7191 15.7393C54.2661 15.5659 53.8538 15.3011 53.5082 14.9613C52.9724 14.397 52.6206 13.5568 52.6206 11.9538V8.26082H50.982V5.69417H52.6206V1.7865H55.7452V5.69417H58.4242V8.27467H55.7429V11.648C55.7429 12.6255 55.9743 13.3583 56.9221 13.3583C57.4475 13.3308 57.9607 13.1903 58.4265 12.9463V15.4195H58.4219ZM81.8744 1.7865H84.9989V9.93883H85.0452L88.5817 5.66878H92.117L88.2449 10.1696L92.411 15.7276H88.7182L85.029 10.5955H84.9827V15.7092H81.8582L81.8744 1.7865ZM95.9406 12.6867C95.9406 11.1748 96.2877 10.3658 97.3639 10.015V9.96884C96.2924 9.62262 95.9406 8.81477 95.9406 7.29717V3.69302C95.9406 2.60935 95.5575 2.22735 94.6398 2.22735C94.3777 2.23022 94.1163 2.2561 93.8587 2.30467V0.122331C94.3291 0.0438132 94.8051 0.00290597 95.2821 0C97.7169 0 98.8186 1.3745 98.8186 3.32833V7.4195C98.8186 8.45816 99.1091 8.87017 100.181 8.87017H100.778V11.1137H100.181C99.1091 11.1137 98.8186 11.5268 98.8186 12.5643V16.6717C98.8186 18.6255 97.6857 20 95.2821 20C94.8051 19.9971 94.3291 19.9562 93.8587 19.8777V17.6942C94.1146 17.7546 94.3768 17.7852 94.6398 17.7853C95.5425 17.7853 95.9406 17.4045 95.9406 16.3197V12.6867ZM69.647 13.4045C69.2189 13.4045 69.0349 13.0837 69.0349 12.6105V9.206C69.0786 8.68656 68.9988 8.16415 68.8019 7.68126C68.6051 7.19837 68.2967 6.76863 67.9019 6.427C66.9179 5.74179 65.7329 5.40349 64.5344 5.46567C63.3115 5.45422 62.1021 5.72062 60.9979 6.24466V8.91633C61.9017 8.41227 62.9168 8.13947 63.9523 8.12233C64.5067 8.07803 65.0592 8.22915 65.5134 8.54934C65.6461 8.69257 65.7484 8.86106 65.8142 9.0447C65.8801 9.22833 65.908 9.42333 65.8964 9.618V10.015C65.3228 9.89275 64.7379 9.83124 64.1513 9.83151C63.1605 9.78683 62.1781 10.0311 61.3242 10.5343C60.9292 10.8011 60.6082 11.1632 60.3913 11.587C60.1744 12.0107 60.0686 12.4823 60.0836 12.9579C60.0713 13.4178 60.174 13.8736 60.3825 14.284C60.591 14.6945 60.8987 15.0466 61.2779 15.3087C61.9767 15.753 62.7916 15.9815 63.6202 15.9654C64.628 15.9815 65.6164 15.6886 66.4519 15.1264L66.4832 15.1102C66.7753 15.3831 67.1197 15.5941 67.4958 15.7305C67.8719 15.867 68.2719 15.9261 68.6715 15.9042C69.1897 15.9187 69.7044 15.8145 70.1759 15.5995V13.2822C70.0108 13.3614 69.8302 13.4032 69.647 13.4045ZM65.9115 13.2822C65.4809 13.5404 64.9904 13.6824 64.4881 13.6942C63.7532 13.6942 63.1862 13.348 63.1862 12.6867C63.1862 11.9077 63.9963 11.6642 64.7936 11.6642C65.1705 11.6633 65.546 11.7094 65.9115 11.8015V13.2822ZM79.9024 15.191C78.8771 15.7219 77.7351 15.9892 76.58 15.9688C73.334 15.9688 70.9096 13.7553 70.9096 10.7328C70.9096 7.57184 73.5434 5.46567 76.7119 5.46567C77.7567 5.4662 78.7873 5.70628 79.7242 6.16734V9.05251C78.8873 8.48191 77.9056 8.15904 76.8925 8.12118C76.4135 8.09881 75.9375 8.20792 75.5163 8.43664C75.0952 8.66536 74.745 9.00492 74.5039 9.41835C74.2595 9.82869 74.1321 10.2978 74.1354 10.775C74.1388 11.2523 74.2727 11.7196 74.5228 12.1265C74.7729 12.5334 75.1297 12.8645 75.5546 13.084C75.9796 13.3035 76.4566 13.4032 76.9341 13.3722C78.0059 13.3558 79.0452 13.0033 79.9047 12.3647V15.1898L79.9024 15.191ZM35.8488 1.95384H38.9734V15.7403H35.8488V1.95384ZM17.2174 15.191C16.1944 15.7127 15.06 15.9795 13.9112 15.9688C10.6709 15.9688 8.24649 13.7553 8.24649 10.7328C8.24649 7.57184 10.8804 5.46567 14.0489 5.46567C15.0897 5.46809 16.1161 5.70811 17.0496 6.16734V9.05251C16.2122 8.48188 15.2301 8.15901 14.2167 8.12118C13.7392 8.10127 13.2653 8.2107 12.8452 8.43784C12.4252 8.66498 12.0746 9.00135 11.8308 9.41122C11.5871 9.82108 11.4592 10.2891 11.4607 10.7657C11.4623 11.2422 11.5933 11.7094 11.8397 12.1177C12.0913 12.5252 12.4493 12.8569 12.8753 13.0773C13.3013 13.2976 13.7793 13.3984 14.2583 13.3687C15.3255 13.3546 16.3604 13.0017 17.2127 12.3612V15.1864L17.2174 15.191ZM28.3268 13.4045C27.8986 13.4045 27.7146 13.0837 27.7146 12.6105V9.206C27.7584 8.68656 27.6786 8.16415 27.4817 7.68126C27.2849 7.19837 26.9765 6.76863 26.5817 6.427C25.5979 5.74147 24.4127 5.40314 23.2142 5.46567C21.9913 5.45434 20.7819 5.72074 19.6777 6.24466V8.91633C20.5816 8.4124 21.5966 8.13962 22.6321 8.12233C23.1865 8.07784 23.7391 8.22897 24.1932 8.54934C24.3262 8.69239 24.4287 8.86084 24.4945 9.04453C24.5603 9.22821 24.5881 9.4233 24.5762 9.618V10.015C24.0026 9.89267 23.4177 9.83117 22.8311 9.83151C21.838 9.7783 20.8516 10.0231 19.9994 10.5343C19.6045 10.8013 19.2837 11.1634 19.0668 11.5871C18.8499 12.0108 18.744 12.4824 18.7588 12.9579C18.747 13.4177 18.85 13.8733 19.0585 14.2836C19.2669 14.6939 19.5743 15.0462 19.9531 15.3087C20.6519 15.753 21.4667 15.9815 22.2953 15.9654C23.3031 15.9815 24.2916 15.6886 25.1271 15.1264L25.1583 15.1102C25.4506 15.3831 25.7953 15.5942 26.1716 15.7307C26.5479 15.8671 26.948 15.9262 27.3478 15.9042C27.866 15.9188 28.3807 15.8146 28.8522 15.5995V13.2822C28.6882 13.3609 28.5088 13.4027 28.3268 13.4045ZM24.5762 13.2822C24.1457 13.5404 23.6551 13.6824 23.1528 13.6942C22.418 13.6942 21.8521 13.348 21.8521 12.6867C21.8521 11.9077 22.6622 11.6642 23.4595 11.6642C23.836 11.6634 24.2112 11.7095 24.5762 11.8015V13.2822ZM30.47 1.95384H33.5946V15.7403H30.47V1.95384ZM2.18143 12.5643C2.18143 11.5257 1.89096 11.1137 0.819362 11.1137H0.222229V8.87017H0.819362C1.89096 8.87017 2.18143 8.45816 2.18143 7.4195V3.32833C2.18143 1.35834 3.31436 0 5.71794 0C6.19491 0.00290597 6.67089 0.0438132 7.14133 0.122331V2.30814C6.88581 2.2473 6.62406 2.21632 6.36136 2.21581C5.45756 2.21581 5.05947 2.59781 5.05947 3.68148V7.28217C5.05947 8.794 4.7123 9.603 3.63607 9.95384V10C4.70767 10.3462 5.05947 11.1541 5.05947 12.6717V16.2724C5.05947 17.356 5.45756 17.738 6.36136 17.738C6.62406 17.7375 6.88581 17.7065 7.14133 17.6457V19.8292C6.67089 19.9077 6.19491 19.9486 5.71794 19.9515C3.28774 19.9515 2.18143 18.577 2.18143 16.6232V12.5643Z" fill="#201F24"/>
</g>
<defs>
<clipPath id="clip0_1063_107191">
<rect width="101" height="20" fill="white"/>
</clipPath>
</defs>
</svg>
